<?xml version="1.0" encoding="utf-8"?>
<!-- Generator: Adobe Illustrator 18.0.0, SVG Export Plug-In . SVG Version: 6.00 Build 0)  -->
<!DOCTYPE svg PUBLIC "-//W3C//DTD SVG 1.1//EN" "http://www.w3.org/Graphics/SVG/1.1/DTD/svg11.dtd">
<svg version="1.1" id="Layer_1" xmlns="http://www.w3.org/2000/svg" xmlns:xlink="http://www.w3.org/1999/xlink" x="0px" y="0px"
	 viewBox="0 0 334.1 105.9" enable-background="new 0 0 334.1 105.9" xml:space="preserve">
<g>
	<polygon fill="#2B2E31" points="19,81.6 35.9,81.6 35.9,71.8 19,71.8 19,64.1 37.7,64.1 31.5,53.3 5,53.3 5,100.1 42.4,100.1 
		42.4,89.3 19,89.3 	"/>
	<polygon fill="#2B2E31" points="67.3,53.3 59.3,68.6 51.4,53.3 35.9,53.3 52.3,81.6 52.3,100.1 66.2,100.1 66.2,81.6 82.6,53.3 	
		"/>
	<polygon fill="#FFD400" points="96.6,5.6 4.2,39.3 96.6,23 	"/>
</g>
<g>
	<path fill="#2B2E31" d="M128.5,57.7c-5.1,0-9,1.7-11.9,5.1c-2.9,3.4-4.3,8-4.3,13.9c0,6.1,1.4,10.8,4.2,14.1
		c2.8,3.3,6.8,4.9,12,4.9c3.3,0,7.1-0.6,11.3-1.9V99c-2,0.7-3.9,1.2-5.8,1.5c-1.8,0.3-4,0.4-6.4,0.4c-6.9,0-12.3-2.1-16-6.3
		c-3.7-4.2-5.6-10.2-5.6-17.9c0-4.9,0.9-9.1,2.7-12.8c1.8-3.6,4.4-6.5,7.8-8.4c3.4-2,7.5-3,12.1-3c5,0,9.3,0.9,13,2.8l-2.4,5
		C135.5,58.5,131.9,57.7,128.5,57.7z"/>
	<path fill="#2B2E31" d="M174.4,100.2l-1.1-5H173c-1.8,2.2-3.5,3.7-5.3,4.5c-1.8,0.8-4,1.2-6.6,1.2c-3.5,0-6.2-0.9-8.2-2.7
		c-2-1.8-3-4.4-3-7.7c0-7.2,5.7-10.9,17-11.3l6-0.2v-2.1c0-2.7-0.6-4.7-1.7-5.9c-1.2-1.3-3-1.9-5.6-1.9c-1.9,0-3.6,0.3-5.3,0.8
		c-1.7,0.6-3.2,1.2-4.7,1.9l-1.8-4.3c1.8-0.9,3.7-1.7,5.8-2.2c2.1-0.5,4.2-0.8,6.2-0.8c4.3,0,7.4,0.9,9.5,2.8c2.1,1.9,3.1,4.9,3.1,9
		v24.1H174.4z M162.4,96.2c3.2,0,5.8-0.9,7.6-2.6c1.9-1.7,2.8-4.2,2.8-7.5v-3.2l-5.2,0.2c-4.1,0.2-7,0.8-8.9,1.9
		c-1.9,1.1-2.8,2.9-2.8,5.4c0,1.8,0.6,3.3,1.7,4.3C158.8,95.7,160.4,96.2,162.4,96.2z"/>
	<path fill="#2B2E31" d="M214.2,100.2V77.6c0-2.9-0.6-5-1.9-6.4c-1.3-1.4-3.3-2.1-6-2.1c-3.6,0-6.3,1-7.9,3c-1.6,2-2.5,5.3-2.5,9.8
		v18.3h-5.8V64.9h4.7l0.9,4.8h0.3c1.1-1.7,2.6-3.1,4.6-4c2-1,4.2-1.4,6.5-1.4c4.3,0,7.6,1.1,9.7,3.2c2.1,2.1,3.2,5.4,3.2,9.8v23
		H214.2z"/>
	<path fill="#2B2E31" d="M240.2,100.2l-13.4-35.4h6.2l7.5,20.8c1.5,4.2,2.4,7.3,2.8,9.4h0.3c0.1-0.3,0.1-0.6,0.2-1
		c0.1-0.4,0.2-0.7,0.3-1.2c0.1-0.4,0.9-2.8,2.4-7.3l7.5-20.8h6.2l-13.4,35.4H240.2z"/>
	<path fill="#2B2E31" d="M289.2,100.2l-1.1-5h-0.3c-1.8,2.2-3.5,3.7-5.3,4.5c-1.8,0.8-4,1.2-6.6,1.2c-3.5,0-6.2-0.9-8.2-2.7
		c-2-1.8-3-4.4-3-7.7c0-7.2,5.7-10.9,17-11.3l6-0.2v-2.1c0-2.7-0.6-4.7-1.7-5.9c-1.2-1.3-3-1.9-5.6-1.9c-1.9,0-3.6,0.3-5.3,0.8
		c-1.7,0.6-3.2,1.2-4.7,1.9l-1.8-4.3c1.8-0.9,3.7-1.7,5.8-2.2c2.1-0.5,4.2-0.8,6.2-0.8c4.3,0,7.4,0.9,9.5,2.8c2.1,1.9,3.1,4.9,3.1,9
		v24.1H289.2z M277.3,96.2c3.2,0,5.8-0.9,7.6-2.6c1.9-1.7,2.8-4.2,2.8-7.5v-3.2l-5.2,0.2c-4.1,0.2-7,0.8-8.9,1.9
		c-1.9,1.1-2.8,2.9-2.8,5.4c0,1.8,0.6,3.3,1.7,4.3C273.6,95.7,275.2,96.2,277.3,96.2z"/>
	<path fill="#2B2E31" d="M329.1,90.5c0,3.3-1.2,5.9-3.7,7.7c-2.5,1.8-5.9,2.7-10.4,2.7c-4.7,0-8.4-0.7-11.1-2.2v-5.3
		c3.9,1.9,7.6,2.8,11.2,2.8c2.9,0,5-0.5,6.4-1.4c1.3-0.9,2-2.2,2-3.8c0-1.4-0.6-2.6-1.9-3.5c-1.3-1-3.5-2.1-6.8-3.3
		c-3.3-1.3-5.7-2.4-7-3.3c-1.4-0.9-2.3-1.9-3-3.1c-0.6-1.1-1-2.5-1-4.2c0-2.9,1.2-5.2,3.5-6.9c2.4-1.7,5.6-2.5,9.7-2.5
		c4,0,7.8,0.8,11.3,2.4l-2,4.6c-3.6-1.5-6.8-2.3-9.7-2.3c-2.4,0-4.2,0.4-5.5,1.1c-1.2,0.8-1.9,1.8-1.9,3.1c0,1.3,0.5,2.4,1.6,3.2
		c1.1,0.8,3.6,2,7.5,3.5c2.9,1.1,5.1,2.1,6.5,3.1c1.4,0.9,2.4,2,3.1,3.2C328.8,87.4,329.1,88.8,329.1,90.5z"/>
</g>
</svg>
